<svg version="1.2" xmlns="http://www.w3.org/2000/svg" viewBox="0 0 1106 284" width="1834" height="471">
	<title>Aigisoft</title>
	<defs>
		<clipPath clipPathUnits="userSpaceOnUse" id="cp1">
			<path d="m0 0h1106v284h-1106z"/>
		</clipPath>
	</defs>
	<style>
		tspan { white-space:pre } 
		.s0 { fill: #fefefe } 
	</style>
	<g id="Artboard 1" clip-path="url(#cp1)">
		<g id="Layer 1">
			<g id="&lt;Group&gt;">
			</g>
			<g id="&lt;Group&gt;">
				<path id="&lt;Compound Path&gt;" fill-rule="evenodd" class="s0" d="m54.3 79.4c-3.7 0.5-3.3 0-6.2-0.7-2.8-0.6-5-0.4-7.8-1.4-1.2-0.5-2.1-1.8-2.7-2.9-2-3.7-3.5-8.8-5.3-12.7-0.6-1.1-1.9-2.9-2.3-4.1-0.2-0.7-0.2-2.7 0-3.4 0.1-0.6 0.7-1.1 0.9-1.8 0.8-2.4 1.2-5.7 1.9-8.2 0.8-3.2 2-6.8 3.1-9.9 0.4-1.1 0.2-2.6 0.4-3.4 0.1-0.2 2.2-2.6 2.4-2.7 0.5-0.3 1.2-0.2 1.7-0.5 4.1-2.2 8.5-4.7 12.7-6.3 0.4-0.2 0.2-0.6 0.7-0.7 2-0.2 1.9 0.5 2.9 0.8 2.2 0.7 5.5 1 7.8 1.6 0.8 0.2 1.4 0.8 2.3 1 0.9 0.3 2 0.1 2.8 0.3 0.7 0.2 1.1 0.8 1.8 1 0.9 0.2 1.8-0.1 2.8 0.2 0.6 0.1 1.1 0.7 1.6 0.9 2.9 0.9 2.9 0.2 5.1 2.8 2.1 2.7 4.1 6.8 6.2 9.1 0.3 0.3 1.1 0.8 1.5 0.9 1.4 1.8 1.7 0.8 2.8 0 0.5-0.4 1.2-0.6 1.7-1.2 1.1-1.8 1.9-3.9 2.7-5.7 1.3-0.1 1.2-1.6 1.7-2.3 0.1-0.3 0.6-0.4 0.8-0.7 0.2-0.3 0.2-1 0.5-1.2 0.4-0.3 1.2-0.2 1.7-0.4 2.6-1 4.2-0.8 6.5-1.6 0.2 0 0.2-0.5 0.3-0.5 0.1 0 2.4 1 2.7 1.2 0.8 0.4 1.4 1.5 2.7 1.3 1.3 0.9 3.3 2.2 3.9 3.6-0.1 1.2-0.1 2.6 0 3.8 0.2 3.1 0.4 5.5-0.1 8.7-0.2 1.5-0.9 2.5-1.2 4-0.3 1.7-0.4 10 0 11.6 0.2 1.2 1.6 1.6 2.2 2.4 0.3 0.4 0.8 1.9 1.2 1.9 0.2 0 3.1-1.9 3.9-2.2 0.5-0.2 0.2 0 0.3 0.3 0.2 1.7-1.6 3.4-2.5 4.8-0.5 0.7 0.1 0.6-1 1.7-0.3 0.2-0.3 0.7-0.6 0.8-0.5 0.3-4.4 0.5-5.3 0.5-0.3 0.1-0.7 0.4-0.9 0.4-0.6-0.1-1.9-1.2-2.9-0.7-0.6-0.5-2.4-2.3-2.8-2.8 0-0.3 0-0.6 0-0.8-0.1-1.7-0.2-4.7-0.8-6.1-0.1-0.2-0.1-0.5-0.3-0.6q0-0.1 0-0.3c-0.2-1.5-0.8-2-2.4-2.2-4.3-0.5-2.4 2.2-2.1 4.3 0.5 3.3 0.2 6.6 0.7 9.9 0.4 2.6 0.7 5.1 1 7.7v4.7c-0.5 0.8-0.9 1.2-1.6 1.9-0.3 0.2-0.7 0.4-0.9 0.6-1.4 1.3-2.2 2.4-1.6 4.5 0.6 1.9 3.3 5.9 4.4 8 0.8 1.4 1.4 3.2 2.2 4.5 2.2 3.4 3.3 3.2 6.6 4.8 7.5 3.6 15.1 7.1 22.7 10.8 1.2 0.5 3.5 1.2 4.4 1.7 3.4 2.1 8.2 8.9 11.5 11.8 1.8 1.6 3.7 2.7 5.5 4.4 1 1 2.1 2.7 2.8 3.4 0.2 0.2 0.7 0.1 0.9 0.4 0.1 0.1 0.1 1 0 1.1-1 1.1-7.5-0.1-7.9 0.4-0.8 1.1 0.3 2.1 0.5 3.1 0.4 1.6 0.3 6.1 0.1 7.7-0.1 1.1-1 2.1-1.1 3.1-0.2 1 0.1 2.2 0 3.3-0.2 1.9-0.9 3.3-1.1 5.4-0.2 2.1-1 4.4-1.2 6.2-0.2 2.8 0.6 5.8 0.1 8.6 0 0.1 1.2 0.3 0 0.4v0.3c0.3 0 0.6-0.2 0.5 0.2l-0.5 0.2c0.7 2.2 0.4 4.6 0.8 6.9 0.2 0.8 2.3 4.6 2.9 5.7 1.2 2.1 2.3 2.2 2.3 5.1 0.1 3.6-1.6 9.1-2.5 12.7-0.3 1.1 0 2.7-0.3 3.9-0.8 3.7-2.3 7.7-2.4 11.6 0 1.1-0.1 7 0.2 7.6 0.7 1.4 2 0.3 2.8-0.4 4.8-3.8 11.4-10.8 15.9-15.3 0.7-0.7 1.4-1.5 2.1-2.2 0.3-0.3 0.8-0.4 0.6-1.1 0.3-0.3 0.7-0.4 1-0.7 0.9-0.8 1.7-2.7 3.1-1.7 5.8 5 11.5 10.1 17.2 15.1 2.5 2.2 4.9 4.6 7.5 6.8 2 1.8 4 3.1 5.7 5.1 0.3 0.4 1.3 0.3 1.1 0.8-0.3-0.1-1.1 0-1.3-0.1-2.2-1.6-4.8-2.6-7.4-4-4.7-2.4-10.3-6.1-15.1-8.1-0.6-0.3-1.3-0.1-1.6-0.2 0 0-0.1-0.6-0.4-0.9-0.6-0.4-1.5-0.3-2-0.7-0.4-0.2-0.5-1.3-1.5-0.7-0.1 0.1-1.3 1.2-1.3 1.3-0.4 0.4-0.3 1-0.6 1.3-2 3.1-4.1 6.2-6.1 9.5-0.4 0.6-1.1 0.7-1 1.5 0.3 2.4 2.8 1.5 4.5 2 6.7 2 14 3.4 20.6 5.8 0.8 0.3 3.9 1 5 1.2 0.9 0.3 3 0.2 3.7 0.5 0.5 0.2 0.7 0.9 2 1 2.3 0.4 2.6 0.7 4.2 1.1 1.6 0.4 4.6 1.1 5.9 1.2l2.5 0.7-1.7 0.4c-21.5-3.3-43.3-7.5-64.6-11.1-2.5-0.4-4.5-0.3-6.8-1.1-2.1-0.7-4.2-0.4-6.4-0.6-3.1-0.2-7.8-1.6-11-2.1-11.4-1.9-22.8-3.5-34.1-5.5-7.1-1.2-14.1-2.6-21.2-3.5-1.6-0.1-4.3-1.8-5.8-0.8-0.3 0.2-0.2 0.7-0.4 0.9-3.4 4.3-6.3 9.4-9.7 13.7l-3.6 5.9c-5.1 6.7-9.5 13.4-14.2 20.3l-1.9 2.2c-0.4-1.5 0.6-1.9 1.1-3 4-9 8.2-18.1 12.4-27.2 1.8-3.7-3.5-1.3-4.9-0.9-3.3 0.8-8.3 2.2-11.4 2.5-3.4 0.4-6.3 1.6-9.6 2.5-2.1 0.5-6.3 0.9-8.1 1.6-0.6 0.2-0.9 0.7-1.3 0.9-1.1 0.3-2.8 0-4.2 0.5-1.7 0.6-4.1 1.5-6 2-1.2 0.2-2.8-0.1-4 0.6v-1.1c1-0.5 1.9-1 2.8-1.4 1.4 0.5 2.1-0.8 2.5-0.9 4.6-1.7 9.5-3.9 13.6-6.3 0.4-0.2 1.6-0.1 2.4-0.5 8-3.9 16.3-7.6 24.5-11.2 1.2-0.6 2.7-1.5 3.8-2 0.9-0.5 1.9 0 2.6-1.3 1.3-2.2 0.9-3.8 1.6-5.9 0.4-1.4 1.5-3.6 1.8-5.4 0.8-4.9 0.1-10.3 0.6-15.1 0.7-6 0.8-10.7 1.1-16.6 0.1-1.3 0.7-3.1 0.7-4.2 0-0.9-0.6-2.3-0.7-3.3-0.1-1.6 0.2-3.2 0-4.7-0.1-1.2-0.9-2.4-1.1-3.4-0.4-3.1-0.3-5.6-1-8.9-0.5-2.2 0-5.4-0.6-7.2-0.7-2.2-2.7-5.3-3.9-7.4-0.9-1.8-2.1-3.5-3-5-0.8-1.2-0.3-11.7-0.3-14.1 0-2.5-0.7-10.7 0.1-12.3 0.1-0.3 0.7-0.5 0.8-0.9 2.7-6 5.9-11.6 8.8-17.5 1.9-3.7 3.7-7.3 5-11.3 1.9-5.9 2.8-12.2 4.8-17.9 0.3-0.8 0.6-2.6 0.3-3.4-0.2-0.3-0.8-0.4-0.9-0.6-0.9-1.1-1.1-1.5-2.6-2.3-3.1-1.6-3.9-0.7-5.6-4.4-0.1-0.3-0.8-0.9-0.8-1-0.2-1 0.6-1.5 1-1.9 0.2-0.3 0.2-0.8 0.4-1 0.4-0.3 3.7-0.2 4.4 0 0.8 0.3 0.7 0.8 1.1 1 0.3 0.2 0.8 0.1 1.1 0.3 0.4 0.3 0.4 1.5 1.4 0.9 0.9-0.4 0.7-4.6 0.3-5.5-0.1-0.1-2.3-2.1-2.5-2.2-1.8-0.9-3.8-1.4-5.7-2.4-0.4-0.2-1.1-0.1-1.4-0.3-0.2-0.2-0.3-3.6-0.4-4.2-0.4-1.6-1.4-3.5-1.6-5.2-0.8 0.5-1 1.9-1.1 2.7-0.2 1.5 0.3 6.7-0.4 7.5-0.1 0.2-1.2 0.4-1.7 0.7-0.9 0.6-1.8 1.5-2.9 2-0.7 0.3-2.2 0.4-2.9 0.1-0.4-0.2-0.4-0.7-0.8-0.9-0.5-0.2-1.2-0.1-1.9-0.3-0.7-0.2-1-1.1-2.2-0.4 0.5 0.4 0.4 1.1 0.6 1.4 0.1 0.3 1.9 1.7 2.2 2 0.4 0.4 2.2 1.3 2.2 2 0.2 1.5-0.5 2-0.8 3.3-0.3 1.5 0 3.4-0.4 4.9-0.2 0.6-0.8 1.2-0.9 2.1-0.2 0.9 0 2.5-0.4 3.2-0.2 0.5-3.1-0.2-2.4 2.1 0.2 0.4 3.5 0.1 3.8 0.3 0 0-0.2 0.3 0 0.7 1 1.6 2.8 3.5 4 5.1 0.2 0.2 0.7 0.3 0.8 0.6 0.6 0.8-0.1 3.5 1.2 3.5 0.6 0 1.8-2.2 2.3-2.6 0.5-0.2 1.2 0 1.8-0.2 0.2 0 3.4-1.3 3.7-1.5 0.6-0.3 0.9-1.3 2.3-0.9l-3.2 3.9c-0.7 0.9-1.6 2.9-2.5 3zm30.1 108.9c-0.7-1.1-0.9-1-1-2.7-0.4-4.5 1.4-9-0.1-13.5-0.5-1.5-1.6-3.6-2-5.2-0.6-1.9 0.1-3-1.9-4.4-1.2-0.8-4.6-1.6-6.1-1.8-0.9-0.1-2.5-0.3-3.3 0-0.6 0.3-0.5 0.6-0.9 0.8-0.2 0.3-0.7 0.2-1 0.5-0.1 0.1-1.3 2.2-1.3 2.3-0.2 1.1 0 2.6-0.1 3.8-0.1 1.6-0.7 2.6-1 4-0.4 1.8-0.1 4-0.4 5.7-0.3 1.4-1.6 3.7-2.2 5-2.9 6.1-2.1 13.9-2.7 20.5-0.1 1.1-0.7 2.1-0.8 3.1-0.4 2.8-0.7 7.9-0.3 10.5 0 0.5 0.1 0.8 0.5 1.1 1.3 0.1 1.1-1.4 1.5-2.2 0.2-0.4 1-2.2 1.2-2.4 0.3-0.4 3.9 0.2 4.6 0.4 3.8 0.9 7.6 2.2 11.3 3.3 1 0.3 2.2 0.1 3.1 0.3 0.7 0.1 1.1 0.8 1.8 1 0.6 0.1 3.5 0.5 3.8 0 0.3-0.4 0.2-9.1 0.2-10.4-0.2-2.6-0.9-5.3-1.2-7.7-0.2-2.3 0.3-4.9 0-7.2 0-0.5-1.5-4.4-1.7-4.8zm25.4-10.4c-0.6-1.2-1.1-3.1-1.6-4.3-0.8-1.6-1.9-4.2-3.4-5-0.2-0.2-4.4-1.4-4.6-1.3-0.3 0-2.8 1-3 1.1-0.3 0.3-1.3 2.9-1.5 3.5-1.7 5.6-1.2 7.3-1.3 12.9 0 2.5-1.1 4.3-1.3 6.6-0.6 5.5 0.1 12.4 0.3 18 0 3.1-0.4 6.9 0.3 9.9 0.4 2 1.5 1.3 2.9 1.8 6.8 2.2 14.4 4 21.4 5.8 4 1 2.5-1.6 2.8-4.5 0.6-9.1 1.6-18.2 1.9-27.4 0.1-1.7 0.1-3-0.9-4.5-3.5-3.2-8.6-5.9-10.8-10.1-0.4-0.7-0.9-1.8-1.2-2.5zm25.5 7.9c-1.5-2.2-4.7-8.2-6.5-9.6-0.7-0.6-4-2.5-4.4-1.1-0.3 1.2 0.5 1.5 0.7 2.3 0.3 0.8 0.2 1.8 0.6 2.7 1 2.2 5.5 5.6 5.6 8 0 1-0.7 2.3-0.8 3.3-1.5 11-3.8 22-5.1 32.9-0.2 2.4-1.7 3.7 1.2 4.8 3.1 1.1 7.6 1.3 10.8 2.8 1.5-0.2 5.3 1.9 6.3 0.8 0.7-0.8 0.7-6.9 0.9-8.3 0.6-5.7 1.5-11.3 2.1-16.9 0.3-1.9 0.6-5.9 0.5-7.6 0-0.6-0.2-2.1-0.6-2.5-2.9-3.3-7.5-6.4-10.2-9.7-0.5-0.7-0.7-1.3-1.1-1.9z"/>
				<path id="&lt;Compound Path&gt;" fill-rule="evenodd" class="s0" d="m279 196.2l53.5-118.9h21.8l53.6 118.9h-23.2l-45.9-107.2h8.8l-46 107.2zm105.6 0l-45.8-107.2"/>
				<path id="&lt;Compound Path&gt;" fill-rule="evenodd" class="s0" d="m445.1 77.3v118.9h-22.1v-118.9z"/>
				<path id="&lt;Compound Path&gt;" class="s0" d="m558.4 135.6v19.2l20.7 20.7v-39.9zm-9.6 40.8q-7.2 2.1-14.9 2.1-9.5 0-17.3-3-7.8-3.1-13.6-8.7-5.8-5.6-9-13.3-3.2-7.8-3.2-16.7c0-5.7 0.9-10.9 2.7-15.7l-16.2-16.2q-2.2 3.5-3.8 7.4-4.8 11-4.8 24.5 0 13.4 4.8 24.4 4.7 11.1 13.4 19.4 8.7 8.3 20.3 12.8 11.6 4.5 25.6 4.5 12.7 0 24.9-3.8 3.3-1.1 6.4-2.4zm11.5-95.8q-12.1-5-27-5-14.3 0-25.9 4.6-8.4 3.2-15.2 8.4l14.8 14.8q4.4-3.3 9.7-5.3 7.9-3.1 17.4-3.1 9.7 0 17.8 3.3 8 3.3 15 10.3l13.9-13.6q-8.3-9.5-20.5-14.4z"/>
				<path id="&lt;Compound Path&gt;" fill-rule="evenodd" class="s0" d="m630.4 77.3v118.9h-22.1v-118.9z"/>
				<path id="&lt;Compound Path&gt;" class="s0" d="m737.6 83.4l-14.2 14.2q6.2 2.2 12.1 5.7l6.9-17.1q-2.2-1.5-4.8-2.8zm-85.2 100.2q4.3 3.5 10 6.3l14.4-14.4c-6.6-2.5-12.2-5.5-16.7-9z"/>
				<path id="&lt;Compound Path&gt;" class="s0" d="m743.5 147.2q-3.8-6-10.1-9.7-5.9-3.4-13-5.7l-16.1 16.2q3.8 1 7.3 2.1 6.2 1.9 10.1 5.3 3.9 3.3 3.9 8.7 0 4.4-2.7 7.9-2.7 3.5-8.5 5.5-5.7 2-15.1 2-11 0-21.6-3.7-0.4-0.1-0.9-0.3c-6.6-2.5-12.2-5.5-16.7-9l-7.7 17.1q4.3 3.5 10 6.3 4.7 2.2 10.3 4 12.7 4 26.6 4 16.3 0 27-4.8 10.7-4.9 15.9-13 5.2-8 5.2-17.5 0-9.4-3.9-15.4zm-74.6-10.7c3.3 1.9 6.9 3.6 10.7 5l16-16.1q-2.5-0.7-4.9-1.4-6.2-1.8-10-5.2-3.8-3.3-3.8-8.7 0-4.4 2.6-8.1 2.7-3.6 8.4-5.8 5.8-2.2 14.8-2.2 7.8 0 16.3 2.3 2.2 0.6 4.4 1.3 6.2 2.2 12.1 5.7l6.9-17.1q-2.2-1.5-4.8-2.8-6-3.1-13.5-5.1-10.5-2.7-21.2-2.7-16.3 0-26.9 4.9-10.7 4.8-15.8 12.9-5.2 8-5.2 17.7 0 9.5 3.8 15.6 3.8 6.1 10.1 9.8z"/>
				<path id="&lt;Compound Path&gt;" class="s0" d="m884.1 112.3q-4.8-11.2-13.4-19.4-8.5-8.3-20.3-12.8-11.7-4.5-25.4-4.5-14 0-25.7 4.6-5.5 2.2-10.3 5.1l14.8 14.8q2.1-1.1 4.4-2.1 7.8-3 16.8-3 9 0 16.5 3 7.6 3.1 13.3 8.7 5.7 5.6 8.7 13.2 3.1 7.7 3.1 16.9 0 9.1-3.2 16.8-0.9 2.2-2 4.2l15.6 15.6c2.8-3.8 5.2-7.9 7.1-12.3q4.7-11.1 4.7-24.3 0-13.3-4.7-24.5zm-42.6 63.2q-7.5 3-16.5 3-9 0-16.8-3c-5.1-2.1-9.5-5-13.3-8.8q-5.6-5.7-8.8-13.3-3.2-7.7-3.2-16.6 0-9.2 3.2-16.8 0.9-2.2 2.1-4.3l-15.6-15.5q-4.3 5.6-7.1 12.2-4.7 11.1-4.7 24.4 0 13 4.7 24.1c3.2 7.5 7.7 14 13.5 19.5q8.6 8.3 20.4 12.9 11.8 4.6 25.6 4.6 13.7 0 25.4-4.5c3.7-1.4 7.1-3.1 10.3-5.1l-14.9-14.9q-2 1.2-4.3 2.1z"/>
				<path id="&lt;Compound Path&gt;" class="s0" d="m999 116v18.3h-64.7v-18.3zm0-38.7v16.6h-86.7v-16.6zm-64.7 38.7v80.2h-22.1v-80.2z"/>
				<path id="&lt;Compound Path&gt;" class="s0" d="m1106 77.3v16.6h-100.9v-16.6zm-39.4 38.7v80.2h-22v-80.2z"/>
			</g>
		</g>
	</g>
</svg>