<svg version="1.2" xmlns="http://www.w3.org/2000/svg" viewBox="0 0 1280 200" width="1280" height="200">
	<title>Logo</title>
	<style>
		.s0 { fill: #fefefe } 
	</style>
	<g id="&lt;Group&gt;">
		<path id="&lt;Compound Path&gt;" fill-rule="evenodd" class="s0" d="m0 191.6l82.8-184h33.6l83.1 184h-36l-71-165.8h13.7l-71.2 165.8zm163.4 0l-70.9-165.8"/>
		<path id="&lt;Compound Path&gt;" fill-rule="evenodd" class="s0" d="m257.1 7.6v184h-34.2v-184z"/>
		<path id="&lt;Compound Path&gt;" class="s0" d="m432.3 97.8v29.7l32.1 32.1v-61.8zm-14.8 63.2q-11.2 3.3-23 3.3c-9.9 0-18.8-1.6-26.8-4.7-8.1-3.2-15.1-7.7-21.1-13.5q-8.9-8.6-13.9-20.6c-3.3-8-5-16.6-5-25.9 0-8.7 1.4-16.8 4.3-24.1l-25.2-25.2c-2.2 3.7-4.2 7.5-5.9 11.5q-7.4 17.1-7.4 37.8 0 20.8 7.4 37.9 7.4 17.1 20.8 29.9 13.4 12.9 31.4 19.9 18 6.9 39.5 6.9c13.2 0 26-1.9 38.7-5.9q5.1-1.6 9.9-3.6zm17.8-148.4q-18.8-7.6-41.9-7.6-22.1 0-40.1 7c-8.6 3.3-16.4 7.6-23.4 13l22.8 22.9q6.8-5 15.1-8.2 12.2-4.7 26.9-4.7 15 0 27.5 5.1c8.3 3.4 16.1 8.7 23.3 15.9l21.5-21q-12.8-14.7-31.7-22.4z"/>
		<path id="&lt;Compound Path&gt;" fill-rule="evenodd" class="s0" d="m543.8 7.6v184h-34.2v-184z"/>
		<path id="&lt;Compound Path&gt;" class="s0" d="m709.9 17l-22 22c6.3 2.3 12.5 5.2 18.6 8.9l10.8-26.6q-3.6-2.3-7.4-4.3zm-131.9 155.2q6.5 5.3 15.4 9.6l22.3-22.3c-10.3-3.7-18.9-8.4-25.9-13.9z"/>
		<path id="&lt;Compound Path&gt;" class="s0" d="m719 115.8q-5.9-9.4-15.7-15c-6.1-3.6-12.8-6.5-20.1-8.8l-25 25q6 1.6 11.4 3.2 9.5 3.1 15.6 8.2 6 5.1 6 13.5c0 4.6-1.3 8.7-4.2 12.2q-4.2 5.5-13.1 8.6-8.9 3.1-23.4 3.1-17.1 0-33.4-5.7c-0.5-0.2-0.9-0.4-1.4-0.6-10.3-3.7-18.9-8.4-25.9-13.9l-11.8 26.6q6.5 5.3 15.4 9.6 7.2 3.5 16 6.3c13 4.1 26.7 6.1 41.1 6.1q25.2 0 41.8-7.4 16.5-7.6 24.6-20c5.3-8.3 8-17.4 8-27.2q0-14.5-5.9-23.8zm-115.5-16.6c5.1 3 10.5 5.6 16.5 7.7l24.8-24.8q-3.9-1.1-7.6-2.2c-6.4-1.9-11.5-4.6-15.5-8-3.9-3.4-5.9-7.9-5.9-13.6 0-4.5 1.4-8.6 4.1-12.4q4.1-5.7 13-9.1c5.9-2.3 13.6-3.4 22.9-3.4q12.1 0 25.2 3.5c2.3 0.7 4.6 1.4 6.9 2.1 6.3 2.3 12.5 5.2 18.6 8.9l10.8-26.6q-3.6-2.3-7.4-4.3c-6.3-3.2-13.3-5.8-21-7.8q-16.3-4.2-32.9-4.2-25.2 0-41.6 7.5-16.5 7.5-24.5 20-8 12.5-8 27.4 0 14.8 5.9 24.2 5.9 9.5 15.7 15.1z"/>
		<path id="&lt;Compound Path&gt;" class="s0" d="m936.5 61.8c-4.9-11.6-11.8-21.6-20.7-30.1-8.8-8.5-19.3-15.1-31.4-19.7q-18.1-7-39.4-7-21.5 0-39.7 7.1c-5.6 2.2-11 4.9-16 7.9l22.9 22.9c2.2-1.2 4.5-2.3 6.9-3.2q12-4.7 25.9-4.7c9.3 0 17.8 1.5 25.6 4.7 7.8 3.1 14.7 7.6 20.5 13.4 5.9 5.8 10.4 12.6 13.6 20.5 3.1 7.9 4.7 16.5 4.7 26 0 9.5-1.6 18.2-4.9 26.1q-1.4 3.3-3.1 6.4l24.2 24.2c4.3-5.8 7.9-12.2 10.9-19q7.3-17.2 7.3-37.7 0-20.5-7.3-37.8zm-65.9 97.8c-7.8 3.1-16.3 4.7-25.6 4.7q-13.9 0-25.9-4.7c-8-3.2-14.8-7.7-20.6-13.6q-8.7-8.8-13.7-20.6-5-11.9-5-25.8 0-14.2 5-25.9 1.5-3.4 3.3-6.6l-24.2-24.1c-4.3 5.8-8 12.1-10.9 18.9q-7.3 17.2-7.3 37.7c0 13.5 2.4 26 7.3 37.5 4.9 11.4 11.8 21.5 20.8 30.1q13.4 12.8 31.7 20 18.2 7 39.5 7 21.3 0 39.4-6.9c5.7-2.2 11-4.8 16-7.9l-23.1-23q-3.2 1.7-6.7 3.2z"/>
		<path id="&lt;Compound Path&gt;" class="s0" d="m1114.4 67.4v28.4h-100.1v-28.4zm0-59.8v25.7h-134.3v-25.7zm-100.2 59.8v124.2h-34.1v-124.2z"/>
		<path id="&lt;Compound Path&gt;" class="s0" d="m1280 7.6v25.7h-156.1v-25.7zm-61 59.8v124.2h-34.2v-124.2z"/>
	</g>
</svg>